#N canvas 222 108 1052 740 10;
#X msg 245 106 \; pd dsp 1 \;;
#X msg 136 101 \; pd dsp 0 \;;
#X obj 384 242 osc~;
#X obj 518 247 osc~;
#X obj 411 288 *~;
#X floatatom 518 208 5 0 0 0 - - -;
#X floatatom 381 204 5 0 0 0 - - -;
#X obj 357 334 *~;
#X obj 336 373 +~;
#X floatatom 318 272 5 0 0 0 - - -;
#X floatatom 280 307 5 0 0 0 - - -;
#X obj 302 471 output~;
#X obj 179 677 writesf~ 2;
#X msg 177 522 start;
#X msg 231 529 stop;
#X msg 140 475 open deathwarp.wav;
#X obj 333 416 phasor~;
#X floatatom 538 322 5 0 0 0 - - -;
#X floatatom 597 321 5 0 0 0 - - -;
#X floatatom 645 318 5 0 0 0 - - -;
#N canvas 1297 172 450 702 oszi 0;
#X obj 73 77 inlet;
#X obj 148 78 inlet;
#X obj 236 81 inlet;
#X obj 133 537 outlet~;
#X obj 72 172 osc~;
#X obj 69 217 +~;
#X floatatom 115 200 5 0 0 0 - - -;
#X floatatom 100 246 5 0 0 0 - - -;
#X obj 81 287 /~;
#X obj 240 197 -;
#X obj 151 363 *~;
#X obj 188 406 +~;
#X connect 0 0 4 0;
#X connect 1 0 9 1;
#X connect 1 0 11 1;
#X connect 2 0 9 0;
#X connect 4 0 5 0;
#X connect 5 0 8 0;
#X connect 6 0 5 1;
#X connect 7 0 8 1;
#X connect 8 0 10 0;
#X connect 9 0 10 1;
#X connect 10 0 11 0;
#X connect 11 0 3 0;
#X restore 655 76 pd oszi;
#X text 617 53 frequenzy \, min \, max;
#X obj 574 491 output~;
#N canvas 627 133 450 702 oszi 0;
#X obj 148 78 inlet;
#X obj 236 81 inlet;
#X obj 133 537 outlet~;
#X obj 72 172 osc~;
#X obj 240 197 -;
#X obj 151 363 *~;
#X obj 188 406 +~;
#X obj 73 77 inlet~;
#X obj 69 217 +~ 1;
#X obj 81 287 /~ 2;
#X connect 0 0 4 1;
#X connect 0 0 6 1;
#X connect 1 0 4 0;
#X connect 3 0 8 0;
#X connect 4 0 5 1;
#X connect 5 0 6 0;
#X connect 6 0 2 0;
#X connect 7 0 3 0;
#X connect 8 0 9 0;
#X connect 9 0 5 0;
#X restore 583 386 pd oszi;
#N canvas 1428 97 450 702 oszi 0;
#X obj 148 78 inlet;
#X obj 236 81 inlet;
#X obj 133 537 outlet~;
#X obj 72 172 osc~;
#X obj 240 197 -;
#X obj 151 363 *~;
#X obj 188 406 +~;
#X obj 73 77 inlet~;
#X obj 69 217 +~ 1;
#X obj 81 287 /~ 2;
#X connect 0 0 4 1;
#X connect 0 0 6 1;
#X connect 1 0 4 0;
#X connect 3 0 8 0;
#X connect 4 0 5 1;
#X connect 5 0 6 0;
#X connect 6 0 2 0;
#X connect 7 0 3 0;
#X connect 8 0 9 0;
#X connect 9 0 5 0;
#X restore 735 385 pd oszi;
#X floatatom 701 326 5 0 0 0 - - -;
#X floatatom 760 325 5 0 0 0 - - -;
#X floatatom 808 322 5 0 0 0 - - -;
#X obj 701 439 phasor~;
#X obj 585 441 phasor~;
#X obj 406 675 output~;
#X obj 432 548 phasor~;
#X floatatom 441 490 5 0 0 0 - - -;
#X obj 482 616 +~;
#X obj 495 546 phasor~;
#X floatatom 504 488 5 0 0 0 - - -;
#X obj 369 566 phasor~;
#X floatatom 378 508 5 0 0 0 - - -;
#X obj 330 645 /~ 3;
#X connect 2 0 4 0;
#X connect 3 0 4 1;
#X connect 4 0 7 1;
#X connect 5 0 3 0;
#X connect 6 0 2 0;
#X connect 7 0 8 1;
#X connect 8 0 16 0;
#X connect 9 0 7 0;
#X connect 10 0 8 0;
#X connect 13 0 12 0;
#X connect 14 0 12 0;
#X connect 15 0 12 0;
#X connect 16 0 11 1;
#X connect 16 0 11 0;
#X connect 17 0 23 0;
#X connect 18 0 23 1;
#X connect 19 0 23 2;
#X connect 23 0 29 0;
#X connect 24 0 28 0;
#X connect 25 0 24 0;
#X connect 26 0 24 1;
#X connect 27 0 24 2;
#X connect 28 0 22 1;
#X connect 29 0 22 0;
#X connect 31 0 33 0;
#X connect 32 0 31 0;
#X connect 33 0 38 0;
#X connect 34 0 33 1;
#X connect 35 0 34 0;
#X connect 36 0 33 0;
#X connect 37 0 36 0;
#X connect 38 0 30 1;
#X connect 38 0 30 0;
#X connect 38 0 12 0;
#X connect 38 0 12 1;
