#N canvas 537 38 1052 740 10;
#X msg 494 148 \; pd dsp 1 \;;
#X msg 504 217 \; pd dsp 0 \;;
#X obj 132 210 writesf~ 2;
#X msg 107 128 start;
#X msg 161 135 stop;
#X msg 22 91 open deathwarp.wav;
#X floatatom 622 138 5 0 0 0 - - -;
#X floatatom 670 135 5 0 0 0 - - -;
#N canvas 1297 172 450 702 oszi 0;
#X obj 73 77 inlet;
#X obj 148 78 inlet;
#X obj 236 81 inlet;
#X obj 133 537 outlet~;
#X obj 72 172 osc~;
#X obj 69 217 +~;
#X floatatom 115 200 5 0 0 0 - - -;
#X floatatom 100 246 5 0 0 0 - - -;
#X obj 81 287 /~;
#X obj 240 197 -;
#X obj 151 363 *~;
#X obj 188 406 +~;
#X connect 0 0 4 0;
#X connect 1 0 9 1;
#X connect 1 0 11 1;
#X connect 2 0 9 0;
#X connect 4 0 5 0;
#X connect 5 0 8 0;
#X connect 6 0 5 1;
#X connect 7 0 8 1;
#X connect 8 0 10 0;
#X connect 9 0 10 1;
#X connect 10 0 11 0;
#X connect 11 0 3 0;
#X restore 655 76 pd oszi;
#X text 617 53 frequenzy \, min \, max;
#N canvas 627 133 450 702 oszi 0;
#X obj 148 78 inlet;
#X obj 236 81 inlet;
#X obj 133 537 outlet~;
#X obj 72 172 osc~;
#X obj 240 197 -;
#X obj 151 363 *~;
#X obj 188 406 +~;
#X obj 73 77 inlet~;
#X obj 69 217 +~ 1;
#X obj 81 287 /~ 2;
#X connect 0 0 4 1;
#X connect 0 0 6 1;
#X connect 1 0 4 0;
#X connect 3 0 8 0;
#X connect 4 0 5 1;
#X connect 5 0 6 0;
#X connect 6 0 2 0;
#X connect 7 0 3 0;
#X connect 8 0 9 0;
#X connect 9 0 5 0;
#X restore 608 203 pd oszi;
#X obj 585 441 phasor~;
#X obj 224 213 output~;
#X obj 208 89 phasor~;
#X floatatom 217 31 5 0 0 0 - - -;
#X obj 218 123 +~;
#X obj 271 87 phasor~;
#X floatatom 280 29 5 0 0 0 - - -;
#X obj 155 89 phasor~;
#X floatatom 164 31 5 0 0 0 - - -;
#X obj 212 152 /~ 3;
#X floatatom 570 141 5 0 0 0 - - -;
#X obj 642 295 +~;
#X obj 587 398 +~;
#X obj 240 821 output~;
#X obj 179 656 phasor~;
#X obj 280 654 phasor~;
#X obj 89 656 phasor~;
#X floatatom 89 588 5 0 0 0 - - -;
#X obj 377 656 phasor~;
#X obj 478 656 phasor~;
#X obj 582 656 phasor~;
#X floatatom 141 659 5 0 0 0 - - -;
#X obj 145 591 * 2;
#X obj 198 594 * 2;
#X obj 265 586 * 2;
#X obj 319 585 * 2;
#X obj 379 583 * 2;
#X floatatom 239 657 5 0 0 0 - - -;
#X floatatom 337 655 5 0 0 0 - - -;
#X floatatom 432 654 5 0 0 0 - - -;
#X floatatom 537 658 5 0 0 0 - - -;
#X floatatom 639 657 5 0 0 0 - - -;
#X obj 122 711 *~;
#X obj 220 702 *~;
#X obj 315 697 *~;
#X obj 418 695 *~;
#X obj 514 684 *~;
#X obj 622 684 *~;
#X obj 253 792 /~;
#X obj 98 760 expr~ $v1 + $v2 + $v3 + $v4 + $v5 + $v6;
#X obj 374 761 expr~ $v1 + $v2 + $v3 + $v4 + $v5 + $v6;
#X msg 65 424 stop;
#X obj 137 533 + 1;
#X obj 83 532 f;
#X obj 25 426 bng 15 250 50 0 empty empty empty 17 7 0 10 -262144 -1
-1;
#X msg 130 492 30;
#X floatatom 92 455 5 0 0 0 - - -;
#X obj 37 489 metro;
#X msg 223 522 30;
#X msg 252 521 40;
#X msg 285 522 50;
#X msg 316 522 60;
#X obj 493 515 output~;
#X obj 478 467 writesf~ 2;
#X msg 483 390 start;
#X msg 537 397 stop;
#X msg 337 427 open deathambient.wav;
#X obj 414 180 delay 2000;
#X obj 479 104 bng 15 250 50 0 empty empty empty 17 7 0 10 -262144
-1 -1;
#X floatatom 981 149 5 0 0 0 - - -;
#X floatatom 1029 146 5 0 0 0 - - -;
#N canvas 627 133 450 702 oszi 0;
#X obj 148 78 inlet;
#X obj 236 81 inlet;
#X obj 133 537 outlet~;
#X obj 72 172 osc~;
#X obj 240 197 -;
#X obj 151 363 *~;
#X obj 188 406 +~;
#X obj 73 77 inlet~;
#X obj 69 217 +~ 1;
#X obj 81 287 /~ 2;
#X connect 0 0 4 1;
#X connect 0 0 6 1;
#X connect 1 0 4 0;
#X connect 3 0 8 0;
#X connect 4 0 5 1;
#X connect 5 0 6 0;
#X connect 6 0 2 0;
#X connect 7 0 3 0;
#X connect 8 0 9 0;
#X connect 9 0 5 0;
#X restore 967 214 pd oszi;
#X floatatom 929 152 5 0 0 0 - - -;
#X floatatom 1126 142 5 0 0 0 - - -;
#X floatatom 1174 139 5 0 0 0 - - -;
#N canvas 627 133 450 702 oszi 0;
#X obj 148 78 inlet;
#X obj 236 81 inlet;
#X obj 133 537 outlet~;
#X obj 72 172 osc~;
#X obj 240 197 -;
#X obj 151 363 *~;
#X obj 188 406 +~;
#X obj 73 77 inlet~;
#X obj 69 217 +~ 1;
#X obj 81 287 /~ 2;
#X connect 0 0 4 1;
#X connect 0 0 6 1;
#X connect 1 0 4 0;
#X connect 3 0 8 0;
#X connect 4 0 5 1;
#X connect 5 0 6 0;
#X connect 6 0 2 0;
#X connect 7 0 3 0;
#X connect 8 0 9 0;
#X connect 9 0 5 0;
#X restore 1112 207 pd oszi;
#X floatatom 1074 145 5 0 0 0 - - -;
#X floatatom 1275 137 5 0 0 0 - - -;
#X floatatom 1323 134 5 0 0 0 - - -;
#N canvas 627 133 450 702 oszi 0;
#X obj 148 78 inlet;
#X obj 236 81 inlet;
#X obj 133 537 outlet~;
#X obj 72 172 osc~;
#X obj 240 197 -;
#X obj 151 363 *~;
#X obj 188 406 +~;
#X obj 73 77 inlet~;
#X obj 69 217 +~ 1;
#X obj 81 287 /~ 2;
#X connect 0 0 4 1;
#X connect 0 0 6 1;
#X connect 1 0 4 0;
#X connect 3 0 8 0;
#X connect 4 0 5 1;
#X connect 5 0 6 0;
#X connect 6 0 2 0;
#X connect 7 0 3 0;
#X connect 8 0 9 0;
#X connect 9 0 5 0;
#X restore 1261 202 pd oszi;
#X floatatom 1223 140 5 0 0 0 - - -;
#X floatatom 1422 130 5 0 0 0 - - -;
#X floatatom 1470 127 5 0 0 0 - - -;
#N canvas 627 133 450 702 oszi 0;
#X obj 148 78 inlet;
#X obj 236 81 inlet;
#X obj 133 537 outlet~;
#X obj 72 172 osc~;
#X obj 240 197 -;
#X obj 151 363 *~;
#X obj 188 406 +~;
#X obj 73 77 inlet~;
#X obj 69 217 +~ 1;
#X obj 81 287 /~ 2;
#X connect 0 0 4 1;
#X connect 0 0 6 1;
#X connect 1 0 4 0;
#X connect 3 0 8 0;
#X connect 4 0 5 1;
#X connect 5 0 6 0;
#X connect 6 0 2 0;
#X connect 7 0 3 0;
#X connect 8 0 9 0;
#X connect 9 0 5 0;
#X restore 1408 195 pd oszi;
#X floatatom 1370 133 5 0 0 0 - - -;
#X obj 967 299 osc~;
#X obj 1112 293 osc~;
#X obj 1272 294 osc~;
#X obj 1415 287 osc~;
#X floatatom 1054 381 5 0 0 0 - - -;
#X floatatom 1204 381 5 0 0 0 - - -;
#X floatatom 1364 378 5 0 0 0 - - -;
#X floatatom 1497 382 5 0 0 0 - - -;
#X obj 1055 243 vsl 15 128 0 2 0 0 empty empty empty 0 -9 0 10 -262144
-1 -1 5100 1;
#X obj 1203 244 vsl 15 128 0 2 0 0 empty empty empty 0 -9 0 10 -262144
-1 -1 2900 1;
#X obj 1362 240 vsl 15 128 0 2 0 0 empty empty empty 0 -9 0 10 -262144
-1 -1 7700 1;
#X obj 1497 242 vsl 15 128 0 2 0 0 empty empty empty 0 -9 0 10 -262144
-1 -1 300 1;
#X obj 985 483 expr~ $v1 + $v2 + $v3 + $v4;
#X obj 1208 482 expr~ $v1 + $v2 + $v3 + $v4;
#X obj 988 404 *~;
#X obj 1125 402 *~;
#X obj 1301 414 *~;
#X obj 1405 413 *~;
#X obj 1102 582 output~;
#X obj 1010 525 /~;
#X connect 3 0 2 0;
#X connect 4 0 2 0;
#X connect 5 0 2 0;
#X connect 6 0 10 1;
#X connect 7 0 10 2;
#X connect 10 0 23 0;
#X connect 11 0 63 1;
#X connect 11 0 63 0;
#X connect 11 0 64 0;
#X connect 11 0 64 1;
#X connect 13 0 15 0;
#X connect 14 0 13 0;
#X connect 15 0 20 0;
#X connect 16 0 15 1;
#X connect 17 0 16 0;
#X connect 18 0 15 0;
#X connect 19 0 18 0;
#X connect 20 0 12 1;
#X connect 20 0 12 0;
#X connect 20 0 2 0;
#X connect 20 0 2 1;
#X connect 21 0 10 0;
#X connect 22 0 23 0;
#X connect 23 0 11 0;
#X connect 25 0 44 0;
#X connect 26 0 45 0;
#X connect 27 0 43 0;
#X connect 28 0 27 0;
#X connect 28 0 33 0;
#X connect 29 0 46 0;
#X connect 30 0 47 0;
#X connect 31 0 48 0;
#X connect 32 0 43 1;
#X connect 32 0 51 0;
#X connect 33 0 25 0;
#X connect 33 0 34 0;
#X connect 34 0 26 0;
#X connect 34 0 35 0;
#X connect 35 0 29 0;
#X connect 35 0 36 0;
#X connect 36 0 30 0;
#X connect 36 0 37 0;
#X connect 37 0 31 0;
#X connect 38 0 44 1;
#X connect 38 0 51 1;
#X connect 39 0 45 1;
#X connect 39 0 51 2;
#X connect 40 0 46 1;
#X connect 40 0 51 3;
#X connect 41 0 47 1;
#X connect 41 0 51 4;
#X connect 42 0 48 1;
#X connect 42 0 51 5;
#X connect 43 0 50 0;
#X connect 44 0 50 1;
#X connect 45 0 50 2;
#X connect 46 0 50 3;
#X connect 47 0 50 4;
#X connect 48 0 50 5;
#X connect 49 0 24 1;
#X connect 49 0 24 0;
#X connect 50 0 49 0;
#X connect 51 0 49 1;
#X connect 52 0 58 0;
#X connect 53 0 54 1;
#X connect 54 0 53 0;
#X connect 54 0 28 0;
#X connect 55 0 58 0;
#X connect 56 0 54 1;
#X connect 57 0 58 1;
#X connect 58 0 54 0;
#X connect 59 0 28 0;
#X connect 60 0 28 0;
#X connect 61 0 28 0;
#X connect 62 0 28 0;
#X connect 65 0 64 0;
#X connect 66 0 64 0;
#X connect 67 0 64 0;
#X connect 68 0 1 0;
#X connect 68 0 66 0;
#X connect 69 0 68 0;
#X connect 69 0 0 0;
#X connect 69 0 65 0;
#X connect 70 0 72 1;
#X connect 71 0 72 2;
#X connect 72 0 86 0;
#X connect 73 0 72 0;
#X connect 74 0 76 1;
#X connect 75 0 76 2;
#X connect 76 0 87 0;
#X connect 77 0 76 0;
#X connect 78 0 80 1;
#X connect 79 0 80 2;
#X connect 80 0 88 0;
#X connect 81 0 80 0;
#X connect 82 0 84 1;
#X connect 83 0 84 2;
#X connect 84 0 89 0;
#X connect 85 0 84 0;
#X connect 86 0 100 0;
#X connect 87 0 101 0;
#X connect 88 0 102 0;
#X connect 89 0 103 0;
#X connect 94 0 90 0;
#X connect 94 0 100 1;
#X connect 94 0 99 0;
#X connect 95 0 91 0;
#X connect 95 0 101 1;
#X connect 95 0 99 1;
#X connect 96 0 92 0;
#X connect 96 0 102 1;
#X connect 96 0 99 2;
#X connect 97 0 93 0;
#X connect 97 0 103 1;
#X connect 97 0 99 3;
#X connect 98 0 105 0;
#X connect 99 0 105 1;
#X connect 100 0 98 0;
#X connect 101 0 98 1;
#X connect 102 0 98 2;
#X connect 103 0 98 3;
#X connect 105 0 104 0;
#X connect 105 0 104 1;
